<svg width="110" height="21" fill="none" xmlns="http://www.w3.org/2000/svg"><path d="M78.704 20.001c-2.915 0-5.187-.765-6.816-2.295-1.63-1.53-2.445-3.677-2.445-6.438V1.109h6.41v9.974c0 1.354.244 2.34.733 2.955.507.616 1.23.923 2.172.923.942 0 1.657-.307 2.146-.923.507-.616.76-1.6.76-2.955V1.109h6.3v10.159c0 2.761-.814 4.907-2.444 6.438-1.63 1.53-3.9 2.294-6.816 2.294zm23.964-.422l-3.286-4.934-3.205 4.934h-7.305l6.87-9.314-6.626-9.156h7.197l3.232 4.644 3.15-4.644h6.898l-6.6 8.918L110 19.58h-7.332zM0 1.108h2.716v16.174h10.292v2.296H0V1.108zm28.567 11.557c0 .193-.018.448-.055.765H16.835c.163 1.231.715 2.225 1.657 2.982.96.738 2.145 1.108 3.557 1.108 1.72 0 3.105-.563 4.155-1.689l1.44 1.636c-.652.739-1.467 1.302-2.445 1.689-.96.387-2.036.58-3.231.58-1.521 0-2.87-.299-4.047-.897-1.177-.616-2.09-1.469-2.743-2.56-.633-1.09-.95-2.321-.95-3.693 0-1.355.308-2.577.923-3.668a6.642 6.642 0 012.58-2.533c1.105-.615 2.345-.923 3.72-.923 1.377 0 2.599.308 3.667.923a6.276 6.276 0 012.526 2.533c.615 1.09.923 2.34.923 3.747zm-7.115-5.066c-1.25 0-2.3.37-3.15 1.108-.833.739-1.322 1.706-1.467 2.902h9.233c-.145-1.178-.642-2.137-1.493-2.876C23.742 7.977 22.7 7.6 21.452 7.6zm18.42-2.137c1.829 0 3.277.519 4.346 1.556 1.086 1.02 1.629 2.525 1.629 4.512v8.048H43.24V11.82c0-1.354-.335-2.374-1.005-3.06-.67-.686-1.63-1.03-2.879-1.03-1.412 0-2.525.405-3.34 1.215-.815.791-1.222 1.934-1.222 3.43v7.203h-2.607V5.594h2.498v2.11c.526-.72 1.231-1.275 2.119-1.662.905-.387 1.928-.58 3.068-.58zM64.33 0v19.578h-2.5V17.36a5.612 5.612 0 01-2.2 1.768c-.886.405-1.864.607-2.932.607-1.394 0-2.644-.299-3.748-.897a6.646 6.646 0 01-2.607-2.507c-.616-1.09-.923-2.34-.923-3.746 0-1.408.307-2.648.923-3.72a6.646 6.646 0 012.607-2.507c1.104-.598 2.354-.897 3.748-.897 1.032 0 1.982.193 2.851.58.87.37 1.593.924 2.173 1.662V0h2.607zm-7.414 17.52c.905 0 1.729-.203 2.471-.607a4.527 4.527 0 001.738-1.742c.417-.756.625-1.618.625-2.585 0-.968-.208-1.82-.625-2.56a4.301 4.301 0 00-1.738-1.741c-.742-.405-1.566-.607-2.471-.607-.923 0-1.756.202-2.498.607a4.533 4.533 0 00-1.739 1.741c-.416.74-.624 1.592-.624 2.56 0 .967.208 1.829.624 2.585a4.787 4.787 0 001.738 1.742c.743.404 1.576.607 2.499.607z" fill="#1A3562"/></svg>