<svg xmlns="http://www.w3.org/2000/svg" version="1.1" xmlns:xlink="http://www.w3.org/1999/xlink" xmlns:svgjs="http://svgjs.dev/svgjs" width="1000" height="1125" viewBox="0 0 1000 1125"><g transform="matrix(1,0,0,1,0.0011008540699322111,0)"><svg viewBox="0 0 320 360" data-background-color="#282634" preserveAspectRatio="xMidYMid meet" height="1125" width="1000" xmlns="http://www.w3.org/2000/svg" xmlns:xlink="http://www.w3.org/1999/xlink"><g id="tight-bounds" transform="matrix(1,0,0,1,0.00010353528136874957,0)"><svg viewBox="0 0 320 360" height="360" width="320"><g><svg></svg></g><g><svg viewBox="0 0 320 360" height="360" width="320"><g><path xmlns="http://www.w3.org/2000/svg" d="M307.925 179.999l6.575-11.387c11.322-19.607 4.604-44.679-15.003-56.001l-11.387-6.575v-13.151c0-22.639-18.354-40.994-40.994-40.994h-13.151l-6.575-11.387c-11.322-19.607-36.393-26.325-56.001-15.003l-11.39 6.572-11.387-6.576c-19.607-11.318-44.679-4.6-56.001 15.007l-6.575 11.387h-13.151c-22.639 0-40.994 18.354-40.994 40.994v13.151l-11.387 6.575c-19.607 11.322-26.325 36.393-15.003 56.001l6.572 11.387-6.576 11.387c-11.318 19.607-4.6 44.679 15.007 56l11.387 6.576v13.15c0 22.639 18.354 40.994 40.994 40.994h13.151l6.575 11.387c11.322 19.607 36.393 26.325 56.001 15.003l11.387-6.571 11.387 6.575c19.607 11.322 44.679 4.604 56-15.003l6.576-11.387h13.15c22.639 0 40.994-18.354 40.994-40.994v-13.151l11.387-6.575c19.607-11.322 26.325-36.393 15.003-56.001zM297.702 115.716c8.655 4.996 14.842 13.062 17.428 22.713 2.586 9.65 1.261 19.734-3.735 28.384l-5.538 9.596-17.747-30.74v-35.494zM251.155 271.155l-57.791 33.365h-66.731l-57.791-33.365-33.365-57.791v-66.731l33.365-57.791 57.791-33.365h66.731l57.791 33.365 33.365 57.791v66.731zM284.517 220.539v31.351l-27.151 15.676zM247.566 277.366l-15.676 27.151h-31.351zM187.15 308.106l-27.151 15.676-27.151-15.676zM119.459 304.517h-31.352l-15.676-27.151zM62.632 267.566l-27.151-15.676v-31.351zM31.891 207.15l-15.675-27.151 15.675-27.151zM35.481 139.459v-31.352l27.151-15.676zM72.431 82.632l15.676-27.151h31.352zM132.848 51.891l27.151-15.675 27.151 15.675zM200.539 55.481h31.351l15.676 27.151zM257.366 92.431l27.151 15.676v31.352zM288.106 152.848l15.676 27.151-15.676 27.151zM247.112 55.481c9.992 0 19.384 3.889 26.452 10.956 7.063 7.063 10.956 16.46 10.957 26.452v11.079l-30.741-17.747-17.747-30.74zM173.18 28.606c8.655-4.996 18.735-6.322 28.385-3.735 9.65 2.586 17.716 8.777 22.712 17.428l5.538 9.596h-35.494l-30.741-17.747zM95.716 42.295c4.996-8.655 13.062-14.842 22.713-17.428 9.65-2.586 19.734-1.261 28.384 3.736l9.596 5.537-30.74 17.747h-35.494zM35.481 92.885c0-9.992 3.889-19.384 10.956-26.452 7.063-7.063 16.46-10.956 26.452-10.956h11.079l-17.747 30.74-30.74 17.747zM8.606 166.817c-4.996-8.655-6.322-18.735-3.735-28.385 2.586-9.65 8.777-17.716 17.428-22.712l9.596-5.538v35.495l-17.747 30.74zM22.295 244.281c-8.655-4.996-14.842-13.062-17.428-22.712-2.586-9.65-1.261-19.734 3.736-28.385l5.537-9.596 17.747 30.74v35.495zM72.885 304.517c-9.992 0-19.384-3.889-26.452-10.957-7.063-7.063-10.956-16.46-10.956-26.451v-11.08l30.74 17.747 17.747 30.741zM146.817 331.391c-8.655 4.996-18.735 6.322-28.385 3.735-9.65-2.586-17.716-8.777-22.712-17.428l-5.538-9.596h35.495l30.74 17.747zM224.281 317.702c-4.996 8.655-13.062 14.842-22.712 17.428-9.65 2.586-19.734 1.261-28.385-3.735l-9.596-5.538 30.74-17.747h35.495zM284.517 267.112c0 9.992-3.889 19.384-10.957 26.452-7.063 7.063-16.46 10.956-26.451 10.957h-11.08l17.747-30.741 30.741-17.747zM315.13 221.565c-2.586 9.65-8.777 17.716-17.428 22.712l-9.596 5.538v-35.494l17.747-30.741 5.538 9.596c4.996 8.658 6.326 18.739 3.739 28.389z" fill="#407ec9" fill-rule="nonzero" stroke="none" stroke-width="1" stroke-linecap="butt" stroke-linejoin="miter" stroke-miterlimit="10" stroke-dasharray="" stroke-dashoffset="0" font-family="none" font-weight="none" font-size="none" text-anchor="none" style="mix-blend-mode: normal" data-fill-palette-color="tertiary"></path></g><g transform="matrix(1,0,0,1,64,101.39169966718862)"><svg viewBox="0 0 192 157.21660066562276" height="157.21660066562276" width="192"><g><svg viewBox="0 0 192 157.21660066562276" height="157.21660066562276" width="192"><g><svg viewBox="0 0 192 157.21660066562276" height="157.21660066562276" width="192"><g><svg viewBox="0 0 192 157.21660066562276" height="157.21660066562276" width="192"><g><svg viewBox="0 0 192 157.21660066562276" height="157.21660066562276" width="192"><g><svg viewBox="0 0 192 110.26788990825689" height="110.26788990825689" width="192"><g transform="matrix(1,0,0,1,0,0)"><svg width="192" viewBox="0 -30.489999771118164 53.220001220703125 30.559999465942383" height="110.26788990825689" data-palette-color="#ff4057"><g class="undefined-text-0" data-fill-palette-color="primary" id="text-0"><path d="M2.66 0.07Q0 0.07 0-0.88L0-0.88Q0-1.15 0.17-1.66L0.17-1.66 9.74-29.57Q10.08-30.49 12.21-30.49L12.21-30.49 14.45-30.49Q16.58-30.49 16.92-29.57L16.92-29.57 26.49-1.66Q26.61-1.17 26.61-0.88L26.61-0.88Q26.61-0.39 26.09-0.16 25.56 0.07 24.44 0.07L24.44 0.07 22.53 0.07Q21.51 0.07 20.89-0.13 20.26-0.34 20.12-0.83L20.12-0.83 18.36-6.13 8.13-6.13 6.37-0.83Q6.1 0.07 4.37 0.07L4.37 0.07 2.66 0.07ZM9.99-11.87L16.5-11.87 14.04-19.58Q13.82-20.17 13.66-20.92 13.5-21.68 13.38-22.36L13.38-22.36 13.21-22.36 13.11-21.83Q12.87-20.39 12.55-19.58L12.55-19.58 9.99-11.87ZM29.27 0.07Q26.61 0.07 26.61-0.88L26.61-0.88Q26.61-1.15 26.78-1.66L26.78-1.66 36.35-29.57Q36.69-30.49 38.82-30.49L38.82-30.49 41.06-30.49Q43.19-30.49 43.53-29.57L43.53-29.57 53.1-1.66Q53.22-1.17 53.22-0.88L53.22-0.88Q53.22-0.39 52.7-0.16 52.17 0.07 51.05 0.07L51.05 0.07 49.14 0.07Q48.12 0.07 47.5-0.13 46.87-0.34 46.73-0.83L46.73-0.83 44.97-6.13 34.74-6.13 32.98-0.83Q32.71 0.07 30.98 0.07L30.98 0.07 29.27 0.07ZM36.59-11.87L43.11-11.87 40.65-19.58Q40.43-20.17 40.27-20.92 40.11-21.68 39.99-22.36L39.99-22.36 39.82-22.36 39.72-21.83Q39.48-20.39 39.16-19.58L39.16-19.58 36.59-11.87Z" fill="#ff4057" data-fill-palette-color="primary"></path></g></svg></g></svg></g><g transform="matrix(1,0,0,1,0,136.29949228623855)"><svg viewBox="0 0 192 20.917108379384235" height="20.917108379384235" width="192"><g transform="matrix(1,0,0,1,0,0)"><svg width="192" viewBox="2.799999952316284 -35.849998474121094 449.5500183105469 48.29999923706055" height="20.917108379384235" data-palette-color="#dcdcdc"><g class="undefined-text-1" data-fill-palette-color="secondary" id="text-1"><path d="M15.75-2.25L16.05-2.25Q18.85-2.25 20.45-2.85 22.05-3.45 23.03-4.85 24-6.25 24.8-8.55L24.8-8.55Q25.55-8.35 26.05-8.08 26.55-7.8 27-7.35L27-7.35Q26.45-5.65 26.08-3.65 25.7-1.65 25.45 0.1L25.45 0.1Q24.5 0.05 22.93 0.05 21.35 0.05 19.48 0.03 17.6 0 15.75 0L15.75 0Q14.35 0 12.53 0 10.7 0 8.83 0.03 6.95 0.05 5.35 0.08 3.75 0.1 2.8 0.15L2.8 0.15Q2.8-0.55 2.85-1.07 2.9-1.6 3.05-2L3.05-2Q4.4-2.1 5.15-2.5 5.9-2.9 6.23-3.93 6.55-4.95 6.55-6.9L6.55-6.9 6.55-27.45Q6.55-29.15 6.25-30.05 5.95-30.95 5.2-31.35 4.45-31.75 3.1-31.8L3.1-31.8Q2.95-32.2 2.9-32.77 2.85-33.35 2.85-33.95L2.85-33.95Q3.85-33.9 4.98-33.88 6.1-33.85 7.15-33.83 8.2-33.8 8.9-33.8L8.9-33.8Q10-33.8 11-33.83 12-33.85 12.98-33.88 13.95-33.9 14.95-33.95L14.95-33.95Q14.95-33.3 14.9-32.75 14.85-32.2 14.7-31.8L14.7-31.8Q13.4-31.75 12.63-31.35 11.85-30.95 11.55-30 11.25-29.05 11.25-27.3L11.25-27.3 11.25-6.9Q11.25-5.05 11.6-4.05 11.95-3.05 12.93-2.65 13.9-2.25 15.75-2.25L15.75-2.25ZM40.6 0.45L40.6 0.45Q37.05 0.45 34.7-1.15 32.35-2.75 31.17-5.48 30-8.2 30-11.45L30-11.45Q30-14.65 31.25-17.35 32.5-20.05 34.82-21.7 37.15-23.35 40.35-23.35L40.35-23.35Q43.6-23.35 45.57-21.95 47.55-20.55 48.52-18.2 49.5-15.85 49.7-13L49.7-13Q49.5-12 48.95-11.3L48.95-11.3Q48.1-11.3 46.4-11.3 44.7-11.3 42.55-11.28 40.4-11.25 38.15-11.18 35.9-11.1 33.9-11L33.9-11 33.9-13.55 44.5-13.55Q44.5-16.85 43.3-18.9 42.1-20.95 39.9-20.95L39.9-20.95Q38.7-20.95 37.55-20.23 36.4-19.5 35.65-17.68 34.9-15.85 34.9-12.5L34.9-12.5Q34.9-10.05 35.52-7.73 36.15-5.4 37.72-3.88 39.3-2.35 42.2-2.35L42.2-2.35Q43.85-2.35 45.45-3.1 47.05-3.85 48.3-5.25L48.3-5.25Q48.7-5.05 49.07-4.58 49.45-4.1 49.5-3.7L49.5-3.7Q47.8-1.45 45.57-0.5 43.35 0.45 40.6 0.45ZM62.1 0.45L62.1 0.45Q59.15 0.45 57.72-1.07 56.3-2.6 56.3-6L56.3-6 56.3-19.55Q55.55-19.8 54.75-19.98 53.95-20.15 52.7-20.2L52.7-20.2Q52.7-20.85 52.8-21.33 52.9-21.8 53.15-22.4L53.15-22.4 56.3-22.4 56.3-29Q57.3-29.25 58.27-29.8 59.25-30.35 60-31L60-31Q60.5-30.8 60.65-30.4 60.8-30 60.8-28.4L60.8-28.4 60.8-22.4 67.3-22.4Q67.3-21.9 67.2-21.33 67.1-20.75 66.85-20.2L66.85-20.2Q65.05-20.15 63.55-19.98 62.05-19.8 60.8-19.55L60.8-19.55 60.8-7.05Q60.8-5.4 61.15-4.33 61.5-3.25 62.15-2.75 62.8-2.25 63.7-2.25L63.7-2.25Q64.75-2.25 65.52-2.55 66.3-2.85 67-3.45L67-3.45Q67.65-2.7 67.75-1.8L67.75-1.8Q66.95-0.85 65.32-0.2 63.7 0.45 62.1 0.45ZM86.99-21.6L86.99-21.6Q86.94-20.4 86.92-19.05 86.89-17.7 87.09-16.4L87.09-16.4Q86.59-16.1 85.94-15.95 85.29-15.8 84.59-15.8L84.59-15.8Q84.49-17.2 83.77-18.45 83.04-19.7 81.84-20.5 80.64-21.3 78.99-21.3L78.99-21.3Q77.44-21.3 76.52-20.55 75.59-19.8 75.59-18.55L75.59-18.55Q75.59-17.7 75.97-17.05 76.34-16.4 77.62-15.68 78.89-14.95 81.54-13.9L81.54-13.9Q84.24-12.9 85.79-11.9 87.34-10.9 87.99-9.65 88.64-8.4 88.64-6.6L88.64-6.6Q88.64-4.5 87.44-2.9 86.24-1.3 84.17-0.43 82.09 0.45 79.49 0.45L79.49 0.45Q76.49 0.45 74.72-0.03 72.94-0.5 71.24-1.4L71.24-1.4Q71.34-2.2 71.37-3.35 71.39-4.5 71.39-5.65 71.39-6.8 71.29-7.6L71.29-7.6Q71.69-7.9 72.42-8.03 73.14-8.15 73.89-8.15L73.89-8.15Q74.29-5 75.84-3.45 77.39-1.9 79.99-1.9L79.99-1.9Q82.04-1.9 83.17-2.8 84.29-3.7 84.29-5.1L84.29-5.1Q84.29-6 83.87-6.65 83.44-7.3 82.29-7.95 81.14-8.6 78.89-9.5L78.89-9.5Q76.19-10.6 74.57-11.55 72.94-12.5 72.22-13.8 71.49-15.1 71.49-17.1L71.49-17.1Q71.49-18.7 72.29-19.88 73.09-21.05 74.37-21.83 75.64-22.6 77.09-22.98 78.54-23.35 79.79-23.35L79.79-23.35Q82.04-23.35 83.74-22.9 85.44-22.45 86.99-21.6Z" fill="#ff4057" data-fill-palette-color="primary"></path><path d="M96.61-33.95L96.61-33.95Q97.61-33.9 99.04-33.85 100.46-33.8 101.81-33.8L101.81-33.8Q103.01-33.8 104.21-33.83 105.41-33.85 106.61-33.88 107.81-33.9 108.96-33.9L108.96-33.9Q111.86-33.9 114.26-33.3 116.66-32.7 118.14-31.13 119.61-29.55 119.61-26.6L119.61-26.6Q119.61-23.4 117.66-21.13 115.71-18.85 112.36-18.35L112.36-18.35Q115.01-18.2 117.24-17.38 119.46-16.55 120.81-14.75 122.16-12.95 122.16-9.85L122.16-9.85Q122.16-7.15 120.94-4.9 119.71-2.65 117.06-1.33 114.41 0 110.16 0L110.16 0Q108.76 0 106.84 0 104.91 0 102.91 0.03 100.91 0.05 99.21 0.08 97.51 0.1 96.56 0.15L96.56 0.15Q96.56-0.55 96.61-1.07 96.66-1.6 96.81-2L96.81-2Q98.16-2.1 98.91-2.5 99.66-2.9 99.99-3.93 100.31-4.95 100.31-6.9L100.31-6.9 100.31-27.45Q100.31-29.15 100.01-30.05 99.71-30.95 98.96-31.35 98.21-31.75 96.86-31.8L96.86-31.8Q96.71-32.2 96.66-32.77 96.61-33.35 96.61-33.95ZM104.31-31.3L105.01-32.05 105.01-6.9Q105.01-4.85 105.39-3.83 105.76-2.8 106.79-2.48 107.81-2.15 109.66-2.15L109.66-2.15Q113.36-2.15 115.09-4.03 116.81-5.9 116.81-9.15L116.81-9.15Q116.81-11.5 115.86-12.98 114.91-14.45 113.34-15.23 111.76-16 109.89-16.3 108.01-16.6 106.16-16.6L106.16-16.6 104.41-16.6 104.41-18.75 106.56-18.75Q109.81-18.75 111.51-19.65 113.21-20.55 113.86-22.03 114.51-23.5 114.51-25.1L114.51-25.1Q114.51-27.7 113.34-29.13 112.16-30.55 110.44-31.13 108.71-31.7 107.06-31.7L107.06-31.7Q106.41-31.7 105.79-31.63 105.16-31.55 104.31-31.3L104.31-31.3ZM136.16 0.2L136.16 0.2Q132.81 0.2 130.91-1.75 129.01-3.7 129.01-8.7L129.01-8.7 129.01-16.25Q129.01-18 128.51-18.88 128.01-19.75 125.71-19.8L125.71-19.8Q125.71-20.35 125.78-20.78 125.86-21.2 126.06-21.65L126.06-21.65Q127.61-21.75 129.43-22.25 131.26-22.75 132.41-23.35L132.41-23.35Q132.86-23.2 133.18-22.73 133.51-22.25 133.51-21.15L133.51-21.15 133.51-9.8Q133.51-6.45 134.43-4.65 135.36-2.85 137.66-2.85L137.66-2.85Q140.16-2.85 141.83-4.95 143.51-7.05 143.51-11.4L143.51-11.4 143.51-16.5Q143.51-18.25 142.88-19.13 142.26-20 139.76-20.05L139.76-20.05Q139.76-20.6 139.81-21.03 139.86-21.45 140.11-21.9L140.11-21.9Q142.06-22 143.93-22.43 145.81-22.85 146.91-23.35L146.91-23.35Q147.36-23.2 147.68-22.73 148.01-22.25 148.01-21.15L148.01-21.15 148.01-6.65 144.11-4.8Q143.86-4.15 143.41-3.53 142.96-2.9 142.41-2.35L142.41-2.35Q141.11-1.05 139.66-0.43 138.21 0.2 136.16 0.2ZM145.11 0.45L145.11 0.45Q144.61 0.2 144.23-0.28 143.86-0.75 143.86-2.45L143.86-2.45Q143.86-3 143.93-4 144.01-5 144.36-6.8L144.36-6.8 148.01-6.8Q148.01-5.65 148.21-4.88 148.41-4.1 149.08-3.75 149.76-3.4 151.11-3.4L151.11-3.4Q151.11-2.9 151.06-2.27 151.01-1.65 150.81-1.1L150.81-1.1Q149.56-1.05 147.91-0.63 146.26-0.2 145.11 0.45ZM154.96 0.15L154.96 0.15Q154.96-0.35 155.01-0.93 155.06-1.5 155.21-2L155.21-2Q157.21-2 157.93-2.93 158.66-3.85 158.66-6.35L158.66-6.35 158.66-16.25Q158.66-17.45 158.43-18.23 158.21-19 157.41-19.4 156.61-19.8 154.91-19.8L154.91-19.8Q154.91-20.35 155.01-20.8 155.11-21.25 155.36-21.65L155.36-21.65Q156.11-21.65 157.48-21.9 158.85-22.15 160.16-22.55 161.46-22.95 162.06-23.35L162.06-23.35Q162.51-23.2 162.83-22.75 163.16-22.3 163.16-21.35L163.16-21.35 163.16-6.35Q163.16-3.85 163.83-2.93 164.51-2 166.1-2L166.1-2Q166.26-1.5 166.31-0.85 166.35-0.2 166.35 0.15L166.35 0.15Q165.51 0.1 164.56 0.08 163.6 0.05 162.63 0.03 161.66 0 160.71 0L160.71 0Q159.76 0 158.73 0.03 157.71 0.05 156.76 0.08 155.81 0.1 154.96 0.15ZM160.51-29L160.51-29Q159.26-29 158.41-29.85 157.56-30.7 157.56-31.9L157.56-31.9Q157.56-33.25 158.46-34.1 159.35-34.95 160.51-34.95L160.51-34.95Q161.85-34.95 162.68-34.1 163.51-33.25 163.51-31.9L163.51-31.9Q163.51-30.75 162.63-29.88 161.76-29 160.51-29ZM169.95 0.15L169.95 0.15Q169.95-0.35 170-0.93 170.05-1.5 170.2-2L170.2-2Q172.2-2 172.93-2.93 173.65-3.85 173.65-6.35L173.65-6.35 173.65-28.75Q173.65-29.95 173.43-30.73 173.2-31.5 172.4-31.9 171.6-32.3 169.9-32.3L169.9-32.3Q169.9-32.85 170-33.3 170.1-33.75 170.35-34.15L170.35-34.15Q171.1-34.15 172.48-34.4 173.85-34.65 175.15-35.05 176.45-35.45 177.05-35.85L177.05-35.85Q177.5-35.7 177.83-35.25 178.15-34.8 178.15-33.85L178.15-33.85 178.15-6.35Q178.15-3.85 178.83-2.93 179.5-2 181.1-2L181.1-2Q181.25-1.5 181.3-0.85 181.35-0.2 181.35 0.15L181.35 0.15Q180.5 0.1 179.55 0.08 178.6 0.05 177.63 0.03 176.65 0 175.7 0L175.7 0Q174.75 0 173.73 0.03 172.7 0.05 171.75 0.08 170.8 0.1 169.95 0.15ZM197.55-23.35L197.55-23.35Q199-23.35 200.08-23.1 201.15-22.85 202.4-22.45L202.4-22.45 202.4-18.6Q201.4-19.65 200.23-20.35 199.05-21.05 197.3-21.05L197.3-21.05Q196.25-21.05 195.03-20.63 193.8-20.2 192.65-19.15 191.5-18.1 190.78-16.2 190.05-14.3 190.05-11.3L190.05-11.3Q190.05-8.1 191-6.23 191.95-4.35 193.25-3.53 194.55-2.7 195.65-2.7L195.65-2.7Q197.15-2.7 198.53-3.63 199.9-4.55 200.8-6.65 201.7-8.75 201.7-12.25L201.7-12.25 203.15-6.95Q202.5-5.35 202.03-4.5 201.55-3.65 201.3-3.25L201.3-3.25Q200.85-2.5 199.88-1.65 198.9-0.8 197.53-0.18 196.15 0.45 194.45 0.45L194.45 0.45Q191.55 0.45 189.45-0.73 187.35-1.9 186.23-4.35 185.1-6.8 185.1-10.65L185.1-10.65Q185.1-14.15 186.65-17.03 188.2-19.9 191-21.63 193.8-23.35 197.55-23.35ZM202.75-6.8L206.2-6.8Q206.2-5.65 206.4-4.88 206.6-4.1 207.28-3.75 207.95-3.4 209.3-3.4L209.3-3.4Q209.3-2.9 209.25-2.27 209.2-1.65 209-1.1L209-1.1Q207.75-1.05 206.1-0.63 204.45-0.2 203.3 0.45L203.3 0.45Q202.8 0.2 202.43-0.28 202.05-0.75 202.05-2.45L202.05-2.45Q202.05-3.45 202.23-4.23 202.4-5 202.75-6.8L202.75-6.8ZM201.7-28.75L206.2-28.75 206.2-6.35 201.7-6.35 201.7-28.75ZM205.1-35.85L205.1-35.85Q205.55-35.7 205.88-35.25 206.2-34.8 206.2-33.85L206.2-33.85 206.2-26.9 201.7-26.9 201.7-28.75Q201.7-29.95 201.48-30.73 201.25-31.5 200.45-31.9 199.65-32.3 197.95-32.3L197.95-32.3Q197.95-32.85 198.05-33.3 198.15-33.75 198.4-34.15L198.4-34.15Q199.15-34.15 200.5-34.4 201.85-34.65 203.18-35.05 204.5-35.45 205.1-35.85Z" fill="#dcdcdc" data-fill-palette-color="secondary"></path><path d="M227.97 0.45L227.97 0.45Q224.87 0.45 222.55-0.43 220.22-1.3 217.82-2.75L217.82-2.75Q218.12-4.65 218.2-6.55 218.27-8.45 218.27-9.85L218.27-9.85Q218.82-10 219.57-10.08 220.32-10.15 220.97-10.15L220.97-10.15Q221.12-7.6 221.9-5.78 222.67-3.95 224.35-2.95 226.02-1.95 228.67-1.95L228.67-1.95Q232.12-1.95 233.6-3.48 235.07-5 235.07-7.15L235.07-7.15Q235.07-9.35 233.87-10.78 232.67-12.2 230.77-13.2 228.87-14.2 226.75-15.15 224.62-16.1 222.72-17.35 220.82-18.6 219.62-20.48 218.42-22.35 218.42-25.25L218.42-25.25Q218.42-28.05 219.65-30.08 220.87-32.1 223.12-33.18 225.37-34.25 228.47-34.25L228.47-34.25Q230.22-34.25 231.8-33.95 233.37-33.65 234.67-33.15 235.97-32.65 236.82-32.05L236.82-32.05Q236.82-30.6 236.87-28.7 236.92-26.8 237.12-25.45L237.12-25.45Q236.57-25.25 235.8-25.13 235.02-25 234.32-25L234.32-25Q233.82-27.9 233.02-29.4 232.22-30.9 231.07-31.48 229.92-32.05 228.42-32.05L228.42-32.05Q225.77-32.05 224.27-30.75 222.77-29.45 222.77-27.1L222.77-27.1Q222.77-24.9 223.97-23.45 225.17-22 227.07-20.95 228.97-19.9 231.07-18.93 233.17-17.95 235.07-16.73 236.97-15.5 238.17-13.7 239.37-11.9 239.37-9.15L239.37-9.15Q239.37-6.65 238.17-4.45 236.97-2.25 234.47-0.9 231.97 0.45 227.97 0.45ZM255.32 0.45L255.32 0.45Q251.92 0.45 249.37-1.03 246.82-2.5 245.42-5.18 244.02-7.85 244.02-11.45L244.02-11.45Q244.02-14.85 245.47-17.55 246.92-20.25 249.47-21.8 252.02-23.35 255.32-23.35L255.32-23.35Q258.87-23.35 261.39-21.85 263.92-20.35 265.27-17.68 266.62-15 266.62-11.45L266.62-11.45Q266.62-8.05 265.19-5.35 263.77-2.65 261.24-1.1 258.72 0.45 255.32 0.45ZM255.72-1.95L255.72-1.95Q258.72-1.95 260.17-4.42 261.62-6.9 261.62-10.85L261.62-10.85Q261.62-13.95 260.69-16.23 259.77-18.5 258.22-19.73 256.67-20.95 254.82-20.95L254.82-20.95Q251.92-20.95 250.49-18.6 249.07-16.25 249.07-12.5L249.07-12.5Q249.07-9.15 249.89-6.78 250.72-4.4 252.22-3.18 253.72-1.95 255.72-1.95ZM270.47 0.15L270.47 0.15Q270.47-0.55 270.52-1.07 270.57-1.6 270.72-2L270.72-2Q272.72-2.1 273.44-2.98 274.17-3.85 274.17-6.35L274.17-6.35 274.17-16.25Q274.17-17.45 273.92-18.2 273.67-18.95 272.87-19.35 272.07-19.75 270.42-19.8L270.42-19.8Q270.42-20.35 270.52-20.8 270.62-21.25 270.87-21.65L270.87-21.65Q271.72-21.7 272.99-21.98 274.27-22.25 275.47-22.63 276.67-23 277.32-23.35L277.32-23.35Q277.77-23.2 278.09-22.75 278.42-22.3 278.42-21.35L278.42-21.35Q278.42-20.55 278.34-19.5 278.27-18.45 278.02-16.4L278.02-16.4 277.52-16.35Q278.22-18.25 278.54-18.9 278.87-19.55 279.02-19.75L279.02-19.75Q279.82-20.9 281.69-22.13 283.57-23.35 286.17-23.35L286.17-23.35Q288.27-23.35 290.02-22.4 291.77-21.45 292.57-19.15L292.57-19.15Q292.77-18.55 292.77-17.5L292.77-17.5 292.62-17.5Q293.07-18.75 293.62-19.5L293.62-19.5Q294.47-20.65 296.32-21.88 298.17-23.1 300.76-23.1L300.76-23.1Q302.67-23.1 304.26-22.33 305.87-21.55 306.84-19.78 307.82-18 307.82-14.95L307.82-14.95 307.82-6.35Q307.82-4.65 308.14-3.73 308.47-2.8 309.14-2.45 309.82-2.1 310.82-2L310.82-2Q310.97-1.55 311.02-1.05 311.07-0.55 311.07 0.15L311.07 0.15Q309.97 0.05 308.54 0.03 307.12 0 305.62 0L305.62 0Q304.62 0 303.57 0.03 302.51 0.05 301.51 0.08 300.52 0.1 299.67 0.15L299.67 0.15Q299.67-0.55 299.72-1.07 299.77-1.6 299.92-2L299.92-2Q301.26-2.1 302.01-2.48 302.76-2.85 303.07-3.78 303.37-4.7 303.37-6.35L303.37-6.35 303.37-13.95Q303.37-17.5 302.09-18.78 300.82-20.05 298.77-20.05L298.77-20.05Q297.52-20.05 296.22-19.23 294.92-18.4 294.07-16.57 293.22-14.75 293.22-11.7L293.22-11.7 293.22-6.35Q293.22-3.75 294.02-2.93 294.82-2.1 296.72-2L296.72-2Q296.87-1.55 296.92-1.05 296.97-0.55 296.97 0.15L296.97 0.15Q295.72 0.05 294.09 0.03 292.47 0 291.02 0L291.02 0Q289.57 0 287.99 0.03 286.42 0.05 285.07 0.15L285.07 0.15Q285.07-0.55 285.12-1.07 285.17-1.6 285.32-2L285.32-2Q286.67-2.1 287.42-2.48 288.17-2.85 288.47-3.78 288.77-4.7 288.77-6.35L288.77-6.35 288.77-14.2Q288.77-17.75 287.49-19.03 286.22-20.3 284.17-20.3L284.17-20.3Q282.92-20.3 281.62-19.48 280.32-18.65 279.47-16.82 278.62-15 278.62-11.95L278.62-11.95 278.62-6.35Q278.62-3.85 279.37-2.98 280.12-2.1 282.12-2L282.12-2Q282.27-1.55 282.32-1.05 282.37-0.55 282.37 0.15L282.37 0.15Q281.52 0.1 280.47 0.08 279.42 0.05 278.37 0.03 277.32 0 276.42 0L276.42 0Q275.57 0 274.47 0.03 273.37 0.05 272.32 0.08 271.27 0.1 270.47 0.15ZM325.46 0.45L325.46 0.45Q321.91 0.45 319.56-1.15 317.21-2.75 316.04-5.48 314.86-8.2 314.86-11.45L314.86-11.45Q314.86-14.65 316.11-17.35 317.36-20.05 319.69-21.7 322.01-23.35 325.21-23.35L325.21-23.35Q328.46-23.35 330.44-21.95 332.41-20.55 333.39-18.2 334.36-15.85 334.56-13L334.56-13Q334.36-12 333.81-11.3L333.81-11.3Q332.96-11.3 331.26-11.3 329.56-11.3 327.41-11.28 325.26-11.25 323.01-11.18 320.76-11.1 318.76-11L318.76-11 318.76-13.55 329.36-13.55Q329.36-16.85 328.16-18.9 326.96-20.95 324.76-20.95L324.76-20.95Q323.56-20.95 322.41-20.23 321.26-19.5 320.51-17.68 319.76-15.85 319.76-12.5L319.76-12.5Q319.76-10.05 320.39-7.73 321.01-5.4 322.59-3.88 324.16-2.35 327.06-2.35L327.06-2.35Q328.71-2.35 330.31-3.1 331.91-3.85 333.16-5.25L333.16-5.25Q333.56-5.05 333.94-4.58 334.31-4.1 334.36-3.7L334.36-3.7Q332.66-1.45 330.44-0.5 328.21 0.45 325.46 0.45ZM346.96 0.45L346.96 0.45Q344.01 0.45 342.59-1.07 341.16-2.6 341.16-6L341.16-6 341.16-19.55Q340.41-19.8 339.61-19.98 338.81-20.15 337.56-20.2L337.56-20.2Q337.56-20.85 337.66-21.33 337.76-21.8 338.01-22.4L338.01-22.4 341.16-22.4 341.16-29Q342.16-29.25 343.14-29.8 344.11-30.35 344.86-31L344.86-31Q345.36-30.8 345.51-30.4 345.66-30 345.66-28.4L345.66-28.4 345.66-22.4 352.16-22.4Q352.16-21.9 352.06-21.33 351.96-20.75 351.71-20.2L351.71-20.2Q349.91-20.15 348.41-19.98 346.91-19.8 345.66-19.55L345.66-19.55 345.66-7.05Q345.66-5.4 346.01-4.33 346.36-3.25 347.01-2.75 347.66-2.25 348.56-2.25L348.56-2.25Q349.61-2.25 350.39-2.55 351.16-2.85 351.86-3.45L351.86-3.45Q352.51-2.7 352.61-1.8L352.61-1.8Q351.81-0.85 350.19-0.2 348.56 0.45 346.96 0.45ZM378.91-14.95L378.91-6.35Q378.91-3.75 379.63-2.88 380.36-2 381.86-2L381.86-2Q382.01-1.55 382.06-1.05 382.11-0.55 382.11 0.15L382.11 0.15Q381.01 0.05 379.61 0.03 378.21 0 376.66 0L376.66 0Q375.66 0 374.56 0.03 373.46 0.05 372.48 0.08 371.51 0.1 370.71 0.15L370.71 0.15Q370.71-0.55 370.76-1.07 370.81-1.6 370.96-2L370.96-2Q372.76-2 373.58-2.93 374.41-3.85 374.41-6.35L374.41-6.35 374.41-13.95Q374.41-17.5 373.11-18.78 371.81-20.05 369.76-20.05L369.76-20.05Q368.46-20.05 367.16-19.23 365.86-18.4 364.98-16.57 364.11-14.75 364.11-11.7L364.11-11.7 364.11-6.35Q364.11-3.85 364.86-2.93 365.61-2 367.56-2L367.56-2Q367.71-1.55 367.76-1.05 367.81-0.55 367.81 0.15L367.81 0.15Q367.11 0.1 366.11 0.08 365.11 0.05 364.01 0.03 362.91 0 361.86 0L361.86 0Q360.86 0 359.76 0.03 358.66 0.05 357.66 0.08 356.66 0.1 355.91 0.15L355.91 0.15Q355.91-0.55 355.96-1.07 356.01-1.6 356.16-2L356.16-2Q358.11-2 358.86-2.93 359.61-3.85 359.61-6.35L359.61-6.35 359.61-16.25 364.11-21.15Q364.11-20.55 364.06-19.8 364.01-19.05 363.76-18.2L363.76-18.2Q363.91-18.45 364.06-18.78 364.21-19.1 364.51-19.5L364.51-19.5Q365.36-20.65 367.23-21.88 369.11-23.1 371.76-23.1L371.76-23.1Q373.66-23.1 375.28-22.33 376.91-21.55 377.91-19.78 378.91-18 378.91-14.95L378.91-14.95ZM359.61-26.9L359.61-28.75Q359.61-29.95 359.38-30.73 359.16-31.5 358.36-31.9 357.56-32.3 355.86-32.3L355.86-32.3Q355.86-32.85 355.96-33.3 356.06-33.75 356.31-34.15L356.31-34.15Q357.06-34.15 358.43-34.4 359.81-34.65 361.11-35.05 362.41-35.45 363.01-35.85L363.01-35.85Q363.46-35.7 363.78-35.25 364.11-34.8 364.11-33.85L364.11-33.85 364.11-26.9 359.61-26.9ZM359.61-15.5L359.61-28.75 364.11-28.75 364.11-21.15 359.61-15.5ZM385.76 0.15L385.76 0.15Q385.76-0.35 385.81-0.93 385.86-1.5 386.01-2L386.01-2Q388.01-2 388.73-2.93 389.46-3.85 389.46-6.35L389.46-6.35 389.46-16.25Q389.46-17.45 389.23-18.23 389.01-19 388.21-19.4 387.41-19.8 385.71-19.8L385.71-19.8Q385.71-20.35 385.81-20.8 385.91-21.25 386.16-21.65L386.16-21.65Q386.91-21.65 388.28-21.9 389.66-22.15 390.96-22.55 392.26-22.95 392.86-23.35L392.86-23.35Q393.31-23.2 393.63-22.75 393.96-22.3 393.96-21.35L393.96-21.35 393.96-6.35Q393.96-3.85 394.63-2.93 395.31-2 396.91-2L396.91-2Q397.06-1.5 397.11-0.85 397.16-0.2 397.16 0.15L397.16 0.15Q396.31 0.1 395.36 0.08 394.41 0.05 393.43 0.03 392.46 0 391.51 0L391.51 0Q390.56 0 389.53 0.03 388.51 0.05 387.56 0.08 386.61 0.1 385.76 0.15ZM391.31-29L391.31-29Q390.06-29 389.21-29.85 388.36-30.7 388.36-31.9L388.36-31.9Q388.36-33.25 389.26-34.1 390.16-34.95 391.31-34.95L391.31-34.95Q392.66-34.95 393.48-34.1 394.31-33.25 394.31-31.9L394.31-31.9Q394.31-30.75 393.43-29.88 392.56-29 391.31-29ZM409-21.15L404.5-10.7 404.5-16.25Q404.5-17.45 404.25-18.2 404-18.95 403.2-19.35 402.4-19.75 400.75-19.8L400.75-19.8Q400.75-20.35 400.85-20.8 400.95-21.25 401.2-21.65L401.2-21.65Q402.75-21.75 404.75-22.25 406.75-22.75 407.9-23.35L407.9-23.35Q408.35-23.2 408.68-22.73 409-22.25 409-21.15L409-21.15ZM423.8-14.95L423.8-6.35Q423.8-3.75 424.53-2.88 425.25-2 426.75-2L426.75-2Q426.9-1.55 426.95-1.05 427-0.55 427 0.15L427 0.15Q425.9 0.05 424.5 0.03 423.1 0 421.55 0L421.55 0Q420.55 0 419.45 0.03 418.35 0.05 417.38 0.08 416.4 0.1 415.6 0.15L415.6 0.15Q415.6-0.55 415.65-1.07 415.7-1.6 415.85-2L415.85-2Q417.65-2 418.48-2.93 419.3-3.85 419.3-6.35L419.3-6.35 419.3-13.95Q419.3-17.5 418-18.78 416.7-20.05 414.65-20.05L414.65-20.05Q413.35-20.05 412.05-19.23 410.75-18.4 409.88-16.57 409-14.75 409-11.7L409-11.7 409-6.35Q409-3.85 409.75-2.93 410.5-2 412.45-2L412.45-2Q412.6-1.55 412.65-1.05 412.7-0.55 412.7 0.15L412.7 0.15Q412 0.1 411 0.08 410 0.05 408.9 0.03 407.8 0 406.75 0L406.75 0Q405.75 0 404.65 0.03 403.55 0.05 402.55 0.08 401.55 0.1 400.8 0.15L400.8 0.15Q400.8-0.55 400.85-1.07 400.9-1.6 401.05-2L401.05-2Q403-2 403.75-2.93 404.5-3.85 404.5-6.35L404.5-6.35 404.5-16.25 409-21.15Q409-20.55 408.95-19.8 408.9-19.05 408.65-18.2L408.65-18.2Q408.8-18.45 408.95-18.78 409.1-19.1 409.4-19.5L409.4-19.5Q410.25-20.65 412.13-21.88 414-23.1 416.65-23.1L416.65-23.1Q418.55-23.1 420.18-22.33 421.8-21.55 422.8-19.78 423.8-18 423.8-14.95L423.8-14.95ZM439.55 12.45L439.55 12.45Q436.5 12.45 434.58 11.68 432.65 10.9 431.75 9.4 430.85 7.9 430.85 5.7L430.85 5.7Q430.85 3.8 431.88 2.4 432.9 1 434.75 0.2L434.75 0.2 437.25 0.4Q436.05 1.3 435.6 2.3 435.15 3.3 435.15 4.65L435.15 4.65Q435.15 7.2 436.43 8.5 437.7 9.8 440.75 9.8L440.75 9.8Q444.05 9.8 445.93 8.15 447.8 6.5 447.8 4.35L447.8 4.35Q447.8 3.05 447.18 2.3 446.55 1.55 444.78 1.2 443 0.85 439.55 0.85L439.55 0.85Q437.3 0.85 435.88 0.63 434.45 0.4 433.63-0.13 432.8-0.65 432.48-1.45 432.15-2.25 432.15-3.4L432.15-3.4Q432.15-5.05 433.13-6.63 434.1-8.2 435.65-9.45L435.65-9.45 437.5-8.15Q436.5-7.3 436.08-6.55 435.65-5.8 435.65-5.25L435.65-5.25Q435.65-4.35 436.13-3.9 436.6-3.45 438.15-3.3 439.7-3.15 442.9-3.15L442.9-3.15Q446.25-3.15 448.23-2.6 450.2-2.05 451.08-0.85 451.95 0.35 451.95 2.4L451.95 2.4Q451.95 4.1 451.03 5.88 450.1 7.65 448.45 9.13 446.8 10.6 444.53 11.53 442.25 12.45 439.55 12.45ZM440.75-6.95L440.75-6.95Q438.4-6.95 436.3-7.85 434.2-8.75 432.93-10.55 431.65-12.35 431.65-15.05L431.65-15.05Q431.65-17.35 432.65-19.23 433.65-21.1 435.68-22.23 437.7-23.35 440.65-23.35L440.65-23.35Q443.15-23.35 444.88-22.53 446.6-21.7 447.7-20.43 448.8-19.15 449.3-17.78 449.8-16.4 449.8-15.35L449.8-15.35Q449.8-13.05 448.78-11.13 447.75-9.2 445.73-8.08 443.7-6.95 440.75-6.95ZM441.35-9.25L441.35-9.25Q443-9.25 444.05-10.63 445.1-12 445.1-14.6L445.1-14.6Q445.1-17.25 443.8-19.18 442.5-21.1 440.15-21.1L440.15-21.1Q438.15-21.1 437.2-19.43 436.25-17.75 436.25-15.7L436.25-15.7Q436.25-12.6 437.6-10.93 438.95-9.25 441.35-9.25ZM452.35-19.8L452.35-19.8Q451.55-20 450.43-20.2 449.3-20.4 448.23-20.55 447.15-20.7 446.4-20.75L446.4-20.75 442.9-22.9 452-22.9Q452.2-22.25 452.28-21.43 452.35-20.6 452.35-19.8Z" fill="#407ec9" data-fill-palette-color="tertiary"></path></g></svg></g></svg></g></svg></g></svg></g></svg></g></svg></g></svg></g></svg></g><defs></defs></svg><rect width="320" height="360" fill="none" stroke="none" visibility="hidden"></rect></g></svg></g></svg>